<svg xmlns="http://www.w3.org/2000/svg" xmlns:xlink="http://www.w3.org/1999/xlink" width="180" zoomAndPan="magnify" viewBox="0 0 135 60" height="60" preserveAspectRatio="xMidYMid meet" version="1.0"><defs><g/><clipPath id="d615c88942"><path d="M 59 8 L 68.25 8 L 68.25 17 L 59 17 Z M 59 8 " clip-rule="nonzero"/></clipPath><clipPath id="32dad3e86e"><path d="M 52 0.359375 L 58 0.359375 L 58 6 L 52 6 Z M 52 0.359375 " clip-rule="nonzero"/></clipPath></defs><rect x="-13.5" width="162" fill="#ffffff" y="-6" height="72" fill-opacity="1"/><rect x="-13.5" width="162" fill="#ffffff" y="-6" height="72" fill-opacity="1"/><rect x="-13.5" width="162" fill="#ffffff" y="-6" height="72" fill-opacity="1"/><path fill="#0071a8" d="M 31.554688 14.8125 C 39.898438 11.324219 48.449219 10.75 55.277344 12.652344 C 47.511719 9.199219 36.714844 9.289062 26.222656 13.675781 C 9.582031 20.636719 0.03125 35.742188 4.882812 47.421875 C 8.457031 56.03125 18.867188 60.371094 30.757812 59.269531 C 16.238281 55.839844 12.972656 49.421875 11.664062 46.265625 C 7.140625 35.378906 16.046875 21.292969 31.554688 14.8125 Z M 31.554688 14.8125 " fill-opacity="1" fill-rule="nonzero"/><path fill="#62c7e3" d="M 66.609375 23.292969 C 65.695312 21.09375 64.222656 19.234375 62.339844 17.753906 C 56.136719 12.867188 45.4375 12.046875 35.097656 16.367188 C 27.503906 19.542969 21.730469 24.816406 18.84375 30.507812 C 22.285156 26.105469 27.351562 22.210938 33.546875 19.621094 C 46.527344 14.195312 60.050781 16.304688 65.765625 24.113281 C 66.433594 25.023438 67 26.007812 67.441406 27.066406 C 67.492188 27.195312 67.535156 27.324219 67.582031 27.449219 C 67.480469 26.023438 67.167969 24.632812 66.609375 23.292969 Z M 66.609375 23.292969 " fill-opacity="1" fill-rule="nonzero"/><g clip-path="url(#d615c88942)"><path fill="#14bbe2" d="M 68.207031 12.632812 C 65.011719 13.222656 64.539062 13.699219 63.949219 16.90625 C 63.359375 13.699219 62.882812 13.222656 59.691406 12.632812 C 62.882812 12.042969 63.359375 11.566406 63.949219 8.359375 C 64.539062 11.570312 65.011719 12.046875 68.207031 12.632812 Z M 68.207031 12.632812 " fill-opacity="1" fill-rule="nonzero"/></g><g clip-path="url(#32dad3e86e)"><path fill="#62c7e3" d="M 57.589844 2.78125 C 56 3.238281 55.628906 3.609375 55.175781 5.203125 C 54.71875 3.609375 54.347656 3.238281 52.757812 2.78125 C 54.347656 2.324219 54.71875 1.953125 55.175781 0.359375 C 55.628906 1.953125 56 2.324219 57.589844 2.78125 Z M 57.589844 2.78125 " fill-opacity="1" fill-rule="nonzero"/></g><path fill="#0071a8" d="M 63.949219 4.402344 C 63.15625 4.632812 62.96875 4.820312 62.738281 5.617188 C 62.507812 4.820312 62.324219 4.632812 61.53125 4.402344 C 62.324219 4.171875 62.507812 3.988281 62.738281 3.191406 C 62.96875 3.988281 63.15625 4.171875 63.949219 4.402344 Z M 63.949219 4.402344 " fill-opacity="1" fill-rule="nonzero"/><g fill="#0071a8" fill-opacity="1"><g transform="translate(26.816632, 45.964464)"><g><path d="M 1.296875 -17.765625 L 6.796875 -17.765625 C 8.460938 -17.765625 9.789062 -17.40625 10.78125 -16.6875 C 11.769531 -15.976562 12.265625 -14.828125 12.265625 -13.234375 C 12.265625 -11.460938 11.53125 -10.195312 10.0625 -9.4375 C 12.582031 -8.988281 13.84375 -7.492188 13.84375 -4.953125 C 13.84375 -3.460938 13.328125 -2.265625 12.296875 -1.359375 C 11.265625 -0.453125 9.84375 0 8.03125 0 L 1.296875 0 Z M 5.34375 -10.8125 L 5.65625 -10.8125 C 6.5625 -10.8125 7.238281 -10.96875 7.6875 -11.28125 C 8.132812 -11.59375 8.359375 -12.109375 8.359375 -12.828125 C 8.359375 -14.035156 7.457031 -14.640625 5.65625 -14.640625 L 5.34375 -14.640625 Z M 5.34375 -3.125 L 6.609375 -3.125 C 8.585938 -3.125 9.578125 -3.785156 9.578125 -5.109375 C 9.578125 -5.890625 9.328125 -6.453125 8.828125 -6.796875 C 8.335938 -7.148438 7.597656 -7.328125 6.609375 -7.328125 L 5.34375 -7.328125 Z M 5.34375 -3.125 "/></g></g></g><g fill="#0071a8" fill-opacity="1"><g transform="translate(41.152966, 45.964464)"><g><path d="M 17.46875 0 L 11.890625 0 L 5.34375 -7.53125 L 5.34375 0 L 1.296875 0 L 1.296875 -17.765625 L 5.34375 -17.765625 L 5.34375 -10.5 L 11.4375 -17.765625 L 16.34375 -17.765625 L 9.1875 -9.34375 Z M 17.46875 0 "/></g></g></g><g fill="#0071a8" fill-opacity="1"><g transform="translate(58.093954, 45.964464)"><g/></g></g><g fill="#0071a8" fill-opacity="1"><g transform="translate(63.970551, 45.964464)"><g><path d="M 11.5625 -17.765625 L 11.5625 -14.203125 L 5.34375 -14.203125 L 5.34375 -10.671875 L 11.09375 -10.671875 L 11.09375 -7.125 L 5.34375 -7.125 L 5.34375 0 L 1.296875 0 L 1.296875 -17.765625 Z M 11.5625 -17.765625 "/></g></g></g><g fill="#0071a8" fill-opacity="1"><g transform="translate(76.175816, 45.964464)"><g><path d="M 10.3125 -17.765625 L 17.484375 0 L 13.140625 0 L 11.828125 -3.546875 L 5.0625 -3.546875 L 3.75 0 L -0.609375 0 L 6.5625 -17.765625 Z M 10.4375 -7.109375 L 8.46875 -12.265625 L 8.421875 -12.265625 L 6.4375 -7.109375 Z M 10.4375 -7.109375 "/></g></g></g><g fill="#0071a8" fill-opacity="1"><g transform="translate(93.052233, 45.964464)"><g><path d="M 1.296875 -17.765625 L 7.640625 -17.765625 C 9.347656 -17.765625 10.738281 -17.304688 11.8125 -16.390625 C 12.894531 -15.484375 13.4375 -14.179688 13.4375 -12.484375 C 13.4375 -11.179688 13.109375 -10.085938 12.453125 -9.203125 C 11.796875 -8.316406 10.910156 -7.695312 9.796875 -7.34375 L 15.90625 0 L 10.765625 0 L 5.34375 -7.015625 L 5.34375 0 L 1.296875 0 Z M 5.34375 -9.890625 L 5.8125 -9.890625 C 6.1875 -9.890625 6.5 -9.894531 6.75 -9.90625 C 7.007812 -9.914062 7.304688 -9.960938 7.640625 -10.046875 C 7.972656 -10.140625 8.238281 -10.265625 8.4375 -10.421875 C 8.632812 -10.578125 8.804688 -10.804688 8.953125 -11.109375 C 9.097656 -11.410156 9.171875 -11.773438 9.171875 -12.203125 C 9.171875 -12.640625 9.097656 -13.007812 8.953125 -13.3125 C 8.804688 -13.613281 8.632812 -13.84375 8.4375 -14 C 8.238281 -14.15625 7.972656 -14.273438 7.640625 -14.359375 C 7.304688 -14.441406 7.007812 -14.488281 6.75 -14.5 C 6.5 -14.519531 6.1875 -14.53125 5.8125 -14.53125 L 5.34375 -14.53125 Z M 5.34375 -9.890625 "/></g></g></g><g fill="#0071a8" fill-opacity="1"><g transform="translate(108.464873, 45.964464)"><g><path d="M 15.96875 0 L 15.140625 -10.53125 L 15.03125 -10.53125 L 11.390625 -0.109375 L 8.984375 -0.109375 L 5.34375 -10.53125 L 5.234375 -10.53125 L 4.390625 0 L 0.34375 0 L 1.9375 -17.765625 L 6.25 -17.765625 L 10.1875 -7.515625 L 14.125 -17.765625 L 18.4375 -17.765625 L 20.03125 0 Z M 15.96875 0 "/></g></g></g></svg>